<svg width="721" height="721" viewBox="0 0 721 721" fill="none" xmlns="http://www.w3.org/2000/svg">
<g clip-path="url(#clip0_197_8)">
<rect width="721" height="721" fill="url(#paint0_linear_197_8)"/>
<path d="M336.259 445.906C333.773 437.265 330.281 429.63 325.783 423.001C321.285 416.254 315.78 410.572 309.27 405.956C302.878 401.221 295.539 397.611 287.253 395.125C279.085 392.639 270.03 391.396 260.087 391.396C241.502 391.396 225.167 396.013 211.081 405.246C197.113 414.479 186.223 427.914 178.411 445.551C170.598 463.07 166.692 484.495 166.692 509.827C166.692 535.158 170.539 556.702 178.233 574.457C185.927 592.213 196.817 605.767 210.903 615.118C224.99 624.351 241.621 628.967 260.797 628.967C278.197 628.967 293.053 625.89 305.364 619.734C317.793 613.461 327.262 604.642 333.773 593.278C340.402 581.915 343.716 568.48 343.716 552.973L359.341 555.281H265.591V497.398H417.757V543.207C417.757 575.168 411.01 602.63 397.516 625.594C384.021 648.439 365.437 666.077 341.763 678.506C318.089 690.816 290.982 696.972 260.442 696.972C226.351 696.972 196.403 689.455 170.598 674.422C144.793 659.27 124.67 637.786 110.229 609.969C95.9058 582.033 88.7443 548.889 88.7443 510.537C88.7443 481.062 93.0057 454.784 101.528 431.702C110.17 408.501 122.243 388.851 137.75 372.753C153.257 356.654 171.308 344.403 191.905 335.999C212.501 327.594 234.814 323.392 258.844 323.392C279.44 323.392 298.616 326.411 316.372 332.447C334.128 338.366 349.871 346.77 363.602 357.661C377.452 368.551 388.756 381.512 397.516 396.545C406.275 411.46 411.898 427.914 414.384 445.906H336.259ZM564.03 696.972C536.686 696.972 512.361 692.533 491.054 683.655C469.866 674.659 453.235 662.407 441.161 646.901C429.087 631.394 423.05 613.816 423.05 594.166C423.05 579.015 426.483 565.106 433.348 552.44C440.332 539.656 449.802 529.062 461.757 520.658C473.713 512.135 487.089 506.69 501.885 504.322V501.837C482.472 497.93 466.729 488.52 454.655 473.605C442.581 458.572 436.544 441.112 436.544 421.226C436.544 402.405 442.049 385.655 453.057 370.977C464.066 356.181 479.158 344.58 498.334 336.176C517.629 327.653 539.527 323.392 564.03 323.392C588.533 323.392 610.373 327.653 629.549 336.176C648.843 344.699 663.995 356.358 675.003 371.155C686.012 385.833 691.575 402.523 691.694 421.226C691.575 441.231 685.42 458.69 673.228 473.605C661.035 488.52 645.41 497.93 626.353 501.837V504.322C640.912 506.69 654.111 512.135 665.948 520.658C677.903 529.062 687.373 539.656 694.357 552.44C701.459 565.106 705.069 579.015 705.188 594.166C705.069 613.816 698.973 631.394 686.9 646.901C674.826 662.407 658.135 674.659 636.828 683.655C615.64 692.533 591.374 696.972 564.03 696.972ZM564.03 640.509C576.222 640.509 586.876 638.319 595.99 633.939C605.105 629.441 612.207 623.286 617.297 615.473C622.506 607.542 625.11 598.428 625.11 588.129C625.11 577.594 622.446 568.302 617.12 560.253C611.793 552.085 604.572 545.693 595.458 541.077C586.343 536.342 575.867 533.974 564.03 533.974C552.311 533.974 541.836 536.342 532.603 541.077C523.37 545.693 516.09 552.085 510.763 560.253C505.555 568.302 502.951 577.594 502.951 588.129C502.951 598.428 505.496 607.542 510.586 615.473C515.676 623.286 522.837 629.441 532.07 633.939C541.303 638.319 551.956 640.509 564.03 640.509ZM564.03 478.044C574.21 478.044 583.266 475.973 591.196 471.83C599.127 467.687 605.342 461.946 609.84 454.607C614.338 447.268 616.587 438.804 616.587 429.216C616.587 419.746 614.338 411.46 609.84 404.358C605.342 397.137 599.186 391.515 591.374 387.49C583.561 383.347 574.447 381.276 564.03 381.276C553.732 381.276 544.617 383.347 536.686 387.49C528.756 391.515 522.541 397.137 518.043 404.358C513.663 411.46 511.473 419.746 511.473 429.216C511.473 438.804 513.722 447.268 518.221 454.607C522.719 461.946 528.933 467.687 536.864 471.83C544.795 475.973 553.85 478.044 564.03 478.044Z" fill="white"/>
</g>
<defs>
<linearGradient id="paint0_linear_197_8" x1="0" y1="0" x2="721" y2="721" gradientUnits="userSpaceOnUse">
<stop offset="0.0901117" stop-color="#6366F1"/>
<stop offset="0.443828" stop-color="#8B5CF6"/>
<stop offset="0.943166" stop-color="#D946EF"/>
</linearGradient>
<clipPath id="clip0_197_8">
<rect width="721" height="721" fill="white"/>
</clipPath>
</defs>
</svg>
